# xmcd
#
# Track frame offsets:
#	150
#	23195
#	40911
#	64332
#	84524
#	107169
#	122113
#	144893
#	165668
#	180801
#	199282
#	219412
#
# Disc length: 3198 seconds
# Revision: 0
# Processed by: cddbd v1.5.2PL0 Copyright (c) Steve Scherf et al.
# Submitted via: dBpowerAMP V12.0
#
DISCID=a10c7c0c
DTITLE=Nancy Wright - Putting Down Roots
DYEAR=2014
DGENRE=Soul
TTITLE0=Sweet Soul Satisfaction
TTITLE1=Funkin' It Up
TTITLE2=Just Can't Put A Finger On It
TTITLE3=A Serendipity Mix 
TTITLE4=The Big Queen
TTITLE5=Hush Little Darling
TTITLE6=Well, I'm Travelin' 
TTITLE7=Grooving Easy 
TTITLE8=Lovely Pretender
TTITLE9=Seems I Still Love You
TTITLE10=Boogie For JL 
TTITLE11=Sanctity In Blue
EXTD=
EXTT0=
EXTT1=
EXTT2=
EXTT3=
EXTT4=
EXTT5=
EXTT6=
EXTT7=
EXTT8=
EXTT9=
EXTT10=
EXTT11=
PLAYORDER=
